<mxfile host="app.diagrams.net" modified="2023-10-01T15:09:34.507Z" agent="Mozilla/5.0 (Windows NT 10.0; Win64; x64) AppleWebKit/537.36 (KHTML, like Gecko) Chrome/117.0.0.0 Safari/537.36" etag="V3AT13WMCRxXXbaUa3Ki" version="21.6.9" type="github">
  <diagram name="PÃ¡gina-1" id="Jy2laTJSRQjfN95-dnM8">
    <mxGraphModel dx="989" dy="571" grid="1" gridSize="10" guides="1" tooltips="1" connect="1" arrows="1" fold="1" page="1" pageScale="1" pageWidth="827" pageHeight="1169" math="0" shadow="0">
      <root>
        <mxCell id="0" />
        <mxCell id="1" parent="0" />
        <mxCell id="A1l-bd0E0Y_Q0n0ILJGn-7" value="&lt;br&gt;&lt;br&gt;&lt;br&gt;&lt;br&gt;&lt;br&gt;&lt;br&gt;&lt;br&gt;&lt;br&gt;&lt;br&gt;&lt;br&gt;&lt;br&gt;&lt;br&gt;&lt;br&gt;Inverter Control" style="rounded=0;whiteSpace=wrap;html=1;" vertex="1" parent="1">
          <mxGeometry x="160" width="520" height="240" as="geometry" />
        </mxCell>
        <mxCell id="r6BQJi9y0me9pl01Vemt-1" value="Shield (STM32)" style="whiteSpace=wrap;html=1;aspect=fixed;" parent="1" vertex="1">
          <mxGeometry x="360" y="80" width="120" height="120" as="geometry" />
        </mxCell>
        <mxCell id="A1l-bd0E0Y_Q0n0ILJGn-2" value="" style="shape=flexArrow;endArrow=classic;startArrow=classic;html=1;rounded=0;" edge="1" parent="1">
          <mxGeometry width="100" height="100" relative="1" as="geometry">
            <mxPoint x="450" y="80" as="sourcePoint" />
            <mxPoint x="450" y="10" as="targetPoint" />
          </mxGeometry>
        </mxCell>
        <mxCell id="A1l-bd0E0Y_Q0n0ILJGn-3" value="CAN" style="edgeLabel;html=1;align=center;verticalAlign=middle;resizable=0;points=[];" vertex="1" connectable="0" parent="A1l-bd0E0Y_Q0n0ILJGn-2">
          <mxGeometry x="-0.4493" y="-1" relative="1" as="geometry">
            <mxPoint x="25" y="-11" as="offset" />
          </mxGeometry>
        </mxCell>
        <mxCell id="A1l-bd0E0Y_Q0n0ILJGn-4" value="" style="shape=flexArrow;endArrow=classic;startArrow=classic;html=1;rounded=0;" edge="1" parent="1">
          <mxGeometry width="100" height="100" relative="1" as="geometry">
            <mxPoint x="390" y="80" as="sourcePoint" />
            <mxPoint x="390" y="10" as="targetPoint" />
          </mxGeometry>
        </mxCell>
        <mxCell id="A1l-bd0E0Y_Q0n0ILJGn-5" value="Serial" style="edgeLabel;html=1;align=center;verticalAlign=middle;resizable=0;points=[];" vertex="1" connectable="0" parent="A1l-bd0E0Y_Q0n0ILJGn-4">
          <mxGeometry x="0.1616" y="-2" relative="1" as="geometry">
            <mxPoint x="18" y="11" as="offset" />
          </mxGeometry>
        </mxCell>
        <mxCell id="A1l-bd0E0Y_Q0n0ILJGn-8" value="&lt;br&gt;&lt;br&gt;&lt;br&gt;&lt;br&gt;&lt;br&gt;&lt;br&gt;&lt;br&gt;&lt;br&gt;&lt;br&gt;&lt;br&gt;&lt;br&gt;&lt;br&gt;&lt;br&gt;Inverter Power" style="rounded=0;whiteSpace=wrap;html=1;" vertex="1" parent="1">
          <mxGeometry x="160" y="320" width="207" height="230" as="geometry" />
        </mxCell>
        <mxCell id="A1l-bd0E0Y_Q0n0ILJGn-9" value="&lt;br&gt;&lt;br&gt;&lt;br&gt;&lt;br&gt;&lt;br&gt;&lt;br&gt;&lt;br&gt;&lt;br&gt;&lt;br&gt;&lt;br&gt;&lt;br&gt;&lt;br&gt;&lt;br&gt;Inverter DC Bus" style="rounded=0;whiteSpace=wrap;html=1;" vertex="1" parent="1">
          <mxGeometry x="480" y="320" width="200" height="230" as="geometry" />
        </mxCell>
        <mxCell id="A1l-bd0E0Y_Q0n0ILJGn-10" value="" style="shape=flexArrow;endArrow=classic;html=1;rounded=0;" edge="1" parent="1">
          <mxGeometry width="50" height="50" relative="1" as="geometry">
            <mxPoint x="180" y="240" as="sourcePoint" />
            <mxPoint x="180" y="320" as="targetPoint" />
          </mxGeometry>
        </mxCell>
        <mxCell id="A1l-bd0E0Y_Q0n0ILJGn-11" value="PWM" style="edgeLabel;html=1;align=center;verticalAlign=middle;resizable=0;points=[];" vertex="1" connectable="0" parent="A1l-bd0E0Y_Q0n0ILJGn-10">
          <mxGeometry x="0.7981" y="-4" relative="1" as="geometry">
            <mxPoint x="24" y="-22" as="offset" />
          </mxGeometry>
        </mxCell>
        <mxCell id="A1l-bd0E0Y_Q0n0ILJGn-12" value="" style="shape=flexArrow;endArrow=classic;html=1;rounded=0;exitX=0.286;exitY=-0.015;exitDx=0;exitDy=0;exitPerimeter=0;" edge="1" parent="1">
          <mxGeometry width="50" height="50" relative="1" as="geometry">
            <mxPoint x="230.002" y="320.00000000000006" as="sourcePoint" />
            <mxPoint x="230" y="240" as="targetPoint" />
          </mxGeometry>
        </mxCell>
        <mxCell id="A1l-bd0E0Y_Q0n0ILJGn-13" value="Temp_SiC" style="edgeLabel;html=1;align=center;verticalAlign=middle;resizable=0;points=[];" vertex="1" connectable="0" parent="A1l-bd0E0Y_Q0n0ILJGn-12">
          <mxGeometry x="0.7981" y="-4" relative="1" as="geometry">
            <mxPoint x="16" y="42" as="offset" />
          </mxGeometry>
        </mxCell>
        <mxCell id="A1l-bd0E0Y_Q0n0ILJGn-14" value="" style="shape=flexArrow;endArrow=classic;html=1;rounded=0;exitX=0.286;exitY=-0.015;exitDx=0;exitDy=0;exitPerimeter=0;" edge="1" parent="1">
          <mxGeometry width="50" height="50" relative="1" as="geometry">
            <mxPoint x="280.002" y="320.00000000000006" as="sourcePoint" />
            <mxPoint x="280" y="240" as="targetPoint" />
          </mxGeometry>
        </mxCell>
        <mxCell id="A1l-bd0E0Y_Q0n0ILJGn-15" value="Iabc" style="edgeLabel;html=1;align=center;verticalAlign=middle;resizable=0;points=[];" vertex="1" connectable="0" parent="A1l-bd0E0Y_Q0n0ILJGn-14">
          <mxGeometry x="0.7981" y="-4" relative="1" as="geometry">
            <mxPoint x="16" y="42" as="offset" />
          </mxGeometry>
        </mxCell>
        <mxCell id="A1l-bd0E0Y_Q0n0ILJGn-16" value="" style="shape=flexArrow;endArrow=classic;html=1;rounded=0;exitX=0.286;exitY=-0.015;exitDx=0;exitDy=0;exitPerimeter=0;" edge="1" parent="1">
          <mxGeometry width="50" height="50" relative="1" as="geometry">
            <mxPoint x="500.002" y="320.00000000000006" as="sourcePoint" />
            <mxPoint x="500" y="240" as="targetPoint" />
          </mxGeometry>
        </mxCell>
        <mxCell id="A1l-bd0E0Y_Q0n0ILJGn-17" value="Temp_Cap" style="edgeLabel;html=1;align=center;verticalAlign=middle;resizable=0;points=[];" vertex="1" connectable="0" parent="A1l-bd0E0Y_Q0n0ILJGn-16">
          <mxGeometry x="0.7981" y="-4" relative="1" as="geometry">
            <mxPoint x="36" y="42" as="offset" />
          </mxGeometry>
        </mxCell>
        <mxCell id="A1l-bd0E0Y_Q0n0ILJGn-18" value="" style="shape=flexArrow;endArrow=classic;html=1;rounded=0;exitX=0.286;exitY=-0.015;exitDx=0;exitDy=0;exitPerimeter=0;" edge="1" parent="1">
          <mxGeometry width="50" height="50" relative="1" as="geometry">
            <mxPoint x="579.6619999999999" y="320.00000000000006" as="sourcePoint" />
            <mxPoint x="579.66" y="240" as="targetPoint" />
          </mxGeometry>
        </mxCell>
        <mxCell id="A1l-bd0E0Y_Q0n0ILJGn-19" value="V_DC" style="edgeLabel;html=1;align=center;verticalAlign=middle;resizable=0;points=[];" vertex="1" connectable="0" parent="A1l-bd0E0Y_Q0n0ILJGn-18">
          <mxGeometry x="0.7981" y="-4" relative="1" as="geometry">
            <mxPoint x="26" y="42" as="offset" />
          </mxGeometry>
        </mxCell>
        <mxCell id="A1l-bd0E0Y_Q0n0ILJGn-20" value="" style="shape=flexArrow;endArrow=classic;html=1;rounded=0;exitX=0.199;exitY=0.994;exitDx=0;exitDy=0;exitPerimeter=0;" edge="1" parent="1">
          <mxGeometry width="50" height="50" relative="1" as="geometry">
            <mxPoint x="640.48" y="239.99999999999994" as="sourcePoint" />
            <mxPoint x="640" y="320" as="targetPoint" />
          </mxGeometry>
        </mxCell>
        <mxCell id="A1l-bd0E0Y_Q0n0ILJGn-21" value="SC_End" style="edgeLabel;html=1;align=center;verticalAlign=middle;resizable=0;points=[];" vertex="1" connectable="0" parent="A1l-bd0E0Y_Q0n0ILJGn-20">
          <mxGeometry x="0.7981" y="-4" relative="1" as="geometry">
            <mxPoint x="34" y="-23" as="offset" />
          </mxGeometry>
        </mxCell>
        <mxCell id="A1l-bd0E0Y_Q0n0ILJGn-22" value="" style="shape=flexArrow;endArrow=classic;html=1;rounded=0;exitX=0.199;exitY=0.994;exitDx=0;exitDy=0;exitPerimeter=0;" edge="1" parent="1">
          <mxGeometry width="50" height="50" relative="1" as="geometry">
            <mxPoint x="330.48" y="239.99999999999994" as="sourcePoint" />
            <mxPoint x="330" y="320" as="targetPoint" />
          </mxGeometry>
        </mxCell>
        <mxCell id="A1l-bd0E0Y_Q0n0ILJGn-23" value="Enable" style="edgeLabel;html=1;align=center;verticalAlign=middle;resizable=0;points=[];" vertex="1" connectable="0" parent="A1l-bd0E0Y_Q0n0ILJGn-22">
          <mxGeometry x="0.7981" y="-4" relative="1" as="geometry">
            <mxPoint x="34" y="-23" as="offset" />
          </mxGeometry>
        </mxCell>
      </root>
    </mxGraphModel>
  </diagram>
</mxfile>
